grf
version=1
nRows=7
nColumns=37
inDegrees=no
endheader
time	ground_force_1_vx	ground_force_1_vy	ground_force_1_vz	ground_force_1_px	ground_force_1_py	ground_force_1_pz	ground_moment_1_mx	ground_moment_1_my	ground_moment_1_mz	ground_force_2_vx	ground_force_2_vy	ground_force_2_vz	ground_force_2_px	ground_force_2_py	ground_force_2_pz	ground_moment_2_mx	ground_moment_2_my	ground_moment_2_mz	ground_force_3_vx	ground_force_3_vy	ground_force_3_vz	ground_force_3_px	ground_force_3_py	ground_force_3_pz	ground_moment_3_mx	ground_moment_3_my	ground_moment_3_mz	ground_force_4_vx	ground_force_4_vy	ground_force_4_vz	ground_force_4_px	ground_force_4_py	ground_force_4_pz	ground_moment_4_mx	ground_moment_4_my	ground_moment_4_mz
      4.92000000	      0.00000000	     -0.00000000	      0.00000000	      0.00000000	      0.00000000	      0.00000000	      0.00000000	      0.00000000	      0.00000000	     -1.75618196	     61.23921204	   -446.25598145	   -284.72412807	  -1217.59505669	      0.00000000	     -0.00000000	      0.00000000	   2668.32461793	    -18.29393577	    -65.37100060	   -438.32147217	   -283.46390412	   -617.92507182	      0.00000000	      0.00000000	     -0.00000000	  -9907.71444321	      0.00000000	     -0.00000000	      0.00000000	      0.00000000	      0.00000000	      0.00000000	      0.00000000	      0.00000000	      0.00000000
      4.93000000	      0.00000000	     -0.00000000	      0.00000000	      0.00000000	      0.00000000	      0.00000000	      0.00000000	      0.00000000	      0.00000000	     -1.80483818	     61.10919571	   -445.25137329	   -285.49169599	  -1217.06704525	      0.00000000	     -0.00000000	      0.00000000	   2648.98194923	    -19.29122733	    -65.35133193	   -439.71664429	   -283.56943620	   -617.83082788	      0.00000000	      0.00000000	     -0.00000000	  -9843.49315659	      0.00000000	     -0.00000000	      0.00000000	      0.00000000	      0.00000000	      0.00000000	      0.00000000	      0.00000000	      0.00000000
      4.94000000	      0.00000000	     -0.00000000	      0.00000000	      0.00000000	      0.00000000	      0.00000000	      0.00000000	      0.00000000	      0.00000000	     -2.01077485	     60.34835052	   -446.22885132	   -284.91889421	  -1216.09914774	      0.00000000	      0.00000000	      0.00000000	   2752.67519359	    -19.34590344	    -65.93559859	   -439.93103027	   -283.66539305	   -618.21511194	      0.00000000	      0.00000000	     -0.00000000	  -9921.94655370	      0.00000000	     -0.00000000	      0.00000000	      0.00000000	      0.00000000	      0.00000000	      0.00000000	      0.00000000	      0.00000000
      4.95000000	      0.00000000	     -0.00000000	      0.00000000	      0.00000000	      0.00000000	      0.00000000	      0.00000000	      0.00000000	      0.00000000	     -2.28590536	     59.91446686	   -446.25741577	   -285.41132218	  -1215.95600816	      0.00000000	      0.00000000	      0.00000000	   2688.56212491	    -19.51637846	    -66.10518476	   -442.18630981	   -283.88956603	   -617.61200732	      0.00000000	      0.00000000	     -0.00000000	  -9780.09522942	      0.00000000	     -0.00000000	      0.00000000	      0.00000000	      0.00000000	      0.00000000	      0.00000000	      0.00000000	      0.00000000
      4.96000000	      0.00000000	     -0.00000000	      0.00000000	      0.00000000	      0.00000000	      0.00000000	      0.00000000	      0.00000000	      0.00000000	     -2.46469235	     60.34128571	   -444.21008301	   -286.06696347	  -1215.67742484	      0.00000000	      0.00000000	      0.00000000	   2692.67506376	    -19.69380010	    -66.95527477	   -443.71292114	   -284.02590374	   -618.10476972	      0.00000000	      0.00000000	     -0.00000000	  -9741.26088170	      0.00000000	     -0.00000000	      0.00000000	      0.00000000	      0.00000000	      0.00000000	      0.00000000	      0.00000000	      0.00000000
      4.97000000	      0.00000000	     -0.00000000	      0.00000000	      0.00000000	      0.00000000	      0.00000000	      0.00000000	      0.00000000	      0.00000000	     -2.86258435	     60.64931870	   -443.52615356	   -286.60698079	  -1215.15178927	      0.00000000	      0.00000000	      0.00000000	   2741.04061536	    -20.15278077	    -68.11137214	   -445.13793945	   -284.58441484	   -618.15740954	      0.00000000	      0.00000000	     -0.00000000	  -9794.15463669	      0.00000000	     -0.00000000	      0.00000000	      0.00000000	      0.00000000	      0.00000000	      0.00000000	      0.00000000	      0.00000000
      4.98000000	      0.00000000	     -0.00000000	      0.00000000	      0.00000000	      0.00000000	      0.00000000	      0.00000000	      0.00000000	      0.00000000	     -3.37390137	     60.35770416	   -444.97488403	   -286.67846271	  -1215.16451563	      0.00000000	      0.00000000	      0.00000000	   2698.01693974	    -20.77415679	    -67.95171938	   -445.83544922	   -284.42365752	   -617.84922229	      0.00000000	      0.00000000	     -0.00000000	  -9695.74503798	      0.00000000	     -0.00000000	      0.00000000	      0.00000000	      0.00000000	      0.00000000	      0.00000000	      0.00000000	      0.00000000
